REM DIRINDEX 1\2\5,1\2\6,1\2\7,1\2\8,1\3\9,1\3\10,1\3\11,1\4\12,1\4\13,1\4\14,1\4\15,1\4\16
REM DIRNAME folder01,folder02,folder03,folder04,folder05,folder06,folder07,folder08,folder09,folder10,folder11,folder12,folder13,folder14,folder15,folder16
TITLE ""
FILE "1200_sec02_0414_0421.mp3" MP3
  TRACK 01 AUDIO
    TITLE "0:"
    INDEX 01 00:00:00
  TRACK 02 AUDIO
    TITLE "12:cjc034_05297"
    INDEX 01 00:00:17
  TRACK 03 AUDIO
    TITLE "0:"
    INDEX 01 00:01:21
  TRACK 04 AUDIO
    TITLE "13:cjc034_05298"
    INDEX 01 00:01:56
  TRACK 05 AUDIO
    TITLE "0:"
    INDEX 01 00:03:61
  TRACK 06 AUDIO
    TITLE "14:cjc034_05299"
    INDEX 01 00:04:19
  TRACK 07 AUDIO
    TITLE "0:"
    INDEX 01 00:05:24
  TRACK 08 AUDIO
    TITLE "15:cjc034_05300"
    INDEX 01 00:05:56
  TRACK 09 AUDIO
    TITLE "0:"
    INDEX 01 00:10:74
  TRACK 10 AUDIO
    TITLE "12:cjc034_05301"
    INDEX 01 00:12:30
  TRACK 11 AUDIO
    TITLE "0:"
    INDEX 01 00:13:49
  TRACK 12 AUDIO
    TITLE "13:cjc034_05302"
    INDEX 01 00:14:06
  TRACK 13 AUDIO
    TITLE "0:"
    INDEX 01 00:16:32
  TRACK 14 AUDIO
    TITLE "14:cjc034_05303"
    INDEX 01 00:16:67
  TRACK 15 AUDIO
    TITLE "0:"
    INDEX 01 00:18:09
  TRACK 16 AUDIO
    TITLE "15:cjc034_05304"
    INDEX 01 00:18:42
  TRACK 17 AUDIO
    TITLE "0:"
    INDEX 01 00:23:34
  TRACK 18 AUDIO
    TITLE "12:cjc034_05305"
    INDEX 01 00:24:69
  TRACK 19 AUDIO
    TITLE "0:"
    INDEX 01 00:25:70
  TRACK 20 AUDIO
    TITLE "13:cjc034_05306"
    INDEX 01 00:26:32
  TRACK 21 AUDIO
    TITLE "0:"
    INDEX 01 00:28:51
  TRACK 22 AUDIO
    TITLE "14:cjc034_05307"
    INDEX 01 00:29:13
  TRACK 23 AUDIO
    TITLE "0:"
    INDEX 01 00:30:16
  TRACK 24 AUDIO
    TITLE "15:cjc034_05308"
    INDEX 01 00:30:50
  TRACK 25 AUDIO
    TITLE "0:"
    INDEX 01 00:36:56
  TRACK 26 AUDIO
    TITLE "12:cjc034_05309"
    INDEX 01 00:38:14
  TRACK 27 AUDIO
    TITLE "0:"
    INDEX 01 00:39:13
  TRACK 28 AUDIO
    TITLE "13:cjc034_05310"
    INDEX 01 00:39:45
  TRACK 29 AUDIO
    TITLE "0:"
    INDEX 01 00:42:59
  TRACK 30 AUDIO
    TITLE "14:cjc034_05311"
    INDEX 01 00:43:17
  TRACK 31 AUDIO
    TITLE "0:"
    INDEX 01 00:44:18
  TRACK 32 AUDIO
    TITLE "15:cjc034_05312"
    INDEX 01 00:44:48
  TRACK 33 AUDIO
    TITLE "0:"
    INDEX 01 00:47:58
  TRACK 34 AUDIO
    TITLE "12:cjc034_05313"
    INDEX 01 00:49:16
  TRACK 35 AUDIO
    TITLE "0:"
    INDEX 01 00:50:23
  TRACK 36 AUDIO
    TITLE "13:cjc034_05314"
    INDEX 01 00:50:62
  TRACK 37 AUDIO
    TITLE "0:"
    INDEX 01 00:53:02
  TRACK 38 AUDIO
    TITLE "14:cjc034_05315"
    INDEX 01 00:53:35
  TRACK 39 AUDIO
    TITLE "0:"
    INDEX 01 00:54:44
  TRACK 40 AUDIO
    TITLE "15:cjc034_05316"
    INDEX 01 00:55:03
  TRACK 41 AUDIO
    TITLE "0:"
    INDEX 01 00:57:70
  TRACK 42 AUDIO
    TITLE "12:cjc034_05317"
    INDEX 01 00:59:32
  TRACK 43 AUDIO
    TITLE "0:"
    INDEX 01 01:00:45
  TRACK 44 AUDIO
    TITLE "13:cjc034_05318"
    INDEX 01 01:01:03
  TRACK 45 AUDIO
    TITLE "0:"
    INDEX 01 01:01:68
  TRACK 46 AUDIO
    TITLE "14:cjc034_05319"
    INDEX 01 01:02:28
  TRACK 47 AUDIO
    TITLE "0:"
    INDEX 01 01:03:41
  TRACK 48 AUDIO
    TITLE "15:cjc034_05320"
    INDEX 01 01:04:00
  TRACK 49 AUDIO
    TITLE "0:"
    INDEX 01 01:08:17
  TRACK 50 AUDIO
    TITLE "12:cjc034_05321"
    INDEX 01 01:09:52
  TRACK 51 AUDIO
    TITLE "0:"
    INDEX 01 01:10:61
  TRACK 52 AUDIO
    TITLE "13:cjc034_05322"
    INDEX 01 01:11:19
  TRACK 53 AUDIO
    TITLE "0:"
    INDEX 01 01:13:12
  TRACK 54 AUDIO
    TITLE "14:cjc034_05323"
    INDEX 01 01:13:42
  TRACK 55 AUDIO
    TITLE "0:"
    INDEX 01 01:14:53
  TRACK 56 AUDIO
    TITLE "15:cjc034_05324"
    INDEX 01 01:15:11
  TRACK 57 AUDIO
    TITLE "0:"
    INDEX 01 01:20:18
  TRACK 58 AUDIO
    TITLE "12:cjc034_05325"
    INDEX 01 01:21:49
  TRACK 59 AUDIO
    TITLE "0:"
    INDEX 01 01:22:46
  TRACK 60 AUDIO
    TITLE "13:cjc034_05326"
    INDEX 01 01:23:03
  TRACK 61 AUDIO
    TITLE "0:"
    INDEX 01 01:24:69
  TRACK 62 AUDIO
    TITLE "14:cjc034_05327"
    INDEX 01 01:25:27
  TRACK 63 AUDIO
    TITLE "0:"
    INDEX 01 01:26:23
  TRACK 64 AUDIO
    TITLE "15:cjc034_05328"
    INDEX 01 01:26:58
  TRACK 65 AUDIO
    TITLE "0:"
    INDEX 01 01:29:70
